<mxfile host="app.diagrams.net" modified="2023-04-03T13:59:26.920Z" agent="Mozilla/5.0 (X11; Linux x86_64) AppleWebKit/537.36 (KHTML, like Gecko) Chrome/108.0.0.0 Safari/537.36" version="21.1.1" etag="5KexxGq9b8PGTblhkPAg" type="github">
  <diagram name="Page-1" id="lA6cqbI-vGPZIVPgUL0c">
    <mxGraphModel>
      <root>
        <mxCell id="0" />
        <mxCell id="1" parent="0" />
      </root>
    </mxGraphModel>
  </diagram>
</mxfile>
